<?xml version="1.0" encoding="utf-8"?>
<!-- Generator: Adobe Illustrator 27.6.1, SVG Export Plug-In . SVG Version: 6.00 Build 0)  -->
<svg version="1.1" id="Слой_1" xmlns="http://www.w3.org/2000/svg" xmlns:xlink="http://www.w3.org/1999/xlink" x="0px" y="0px"
	 viewBox="0 0 128 128" style="enable-background:new 0 0 128 128;" xml:space="preserve">
<style type="text/css">
	.st0{fill:none;stroke:#49C1F0;stroke-width:12;stroke-miterlimit:10;}
	.st1{fill:#49C1F0;stroke:#49C1F0;stroke-width:12;stroke-miterlimit:10;}
	.st2{fill:#49C1F0;stroke:#49C1F0;stroke-miterlimit:10;}
</style>
<rect class="st0" width="128" height="128"/>
<rect x="24" y="79.5" class="st1" width="80" height="24.95"/>
<rect x="24" y="24.02" class="st1" width="80" height="24.95"/>
<g>
	<path class="st2" d="M7.42,67.53l1.05-1.2c0.99,1.03,2.37,1.71,3.8,1.71c1.81,0,2.88-0.9,2.88-2.24c0-1.41-1-1.86-2.3-2.42
		l-1.98-0.87c-1.28-0.55-2.79-1.52-2.79-3.55c0-2.1,1.83-3.66,4.34-3.66c1.63,0,3.09,0.71,4.06,1.71l-0.93,1.13
		c-0.84-0.8-1.85-1.29-3.13-1.29c-1.55,0-2.57,0.78-2.57,2.01c0,1.33,1.2,1.82,2.28,2.28l1.96,0.85c1.59,0.69,2.84,1.64,2.84,3.68
		c0,2.18-1.8,3.92-4.7,3.92C10.3,69.57,8.62,68.78,7.42,67.53z"/>
	<path class="st2" d="M18.71,64.23c0-3.41,2.23-5.37,4.73-5.37c2.5,0,4.73,1.96,4.73,5.37c0,3.38-2.23,5.34-4.73,5.34
		C20.94,69.57,18.71,67.61,18.71,64.23z M26.38,64.23c0-2.34-1.19-3.93-2.94-3.93c-1.76,0-2.94,1.59-2.94,3.93
		c0,2.34,1.19,3.9,2.94,3.9C25.19,68.13,26.38,66.57,26.38,64.23z"/>
	<path class="st2" d="M30.71,65.58v-6.47h1.73v6.24c0,1.9,0.57,2.71,1.93,2.71c1.04,0,1.77-0.52,2.73-1.72v-7.24h1.73v10.21H37.4
		l-0.15-1.6H37.2c-0.95,1.11-1.96,1.85-3.37,1.85C31.68,69.57,30.71,68.18,30.71,65.58z"/>
	<path class="st2" d="M42.27,59.11h1.43l0.15,1.47h0.06c0.97-0.96,2.02-1.72,3.42-1.72c2.15,0,3.12,1.39,3.12,3.99v6.47h-1.73v-6.24
		c0-1.9-0.57-2.71-1.93-2.71c-1.04,0-1.77,0.53-2.79,1.57v7.39h-1.73V59.11z"/>
	<path class="st2" d="M53.03,64.23c0-3.31,2.09-5.37,4.42-5.37c1.19,0,1.97,0.45,2.86,1.18l-0.07-1.75v-3.93h1.73v14.96h-1.43
		l-0.15-1.2h-0.06c-0.79,0.79-1.88,1.46-3.1,1.46C54.69,69.57,53.03,67.63,53.03,64.23z M60.24,66.73v-5.35
		c-0.87-0.78-1.66-1.06-2.49-1.06c-1.63,0-2.93,1.57-2.93,3.9c0,2.45,1.01,3.9,2.8,3.9C58.56,68.12,59.38,67.66,60.24,66.73z"/>
	<path class="st2" d="M68.78,67.53l1.05-1.2c0.99,1.03,2.37,1.71,3.8,1.71c1.81,0,2.88-0.9,2.88-2.24c0-1.41-1-1.86-2.3-2.42
		l-1.98-0.87c-1.28-0.55-2.79-1.52-2.79-3.55c0-2.1,1.83-3.66,4.34-3.66c1.63,0,3.09,0.71,4.06,1.71l-0.93,1.13
		c-0.84-0.8-1.85-1.29-3.13-1.29c-1.55,0-2.57,0.78-2.57,2.01c0,1.33,1.2,1.82,2.28,2.28l1.96,0.85c1.59,0.69,2.84,1.64,2.84,3.68
		c0,2.18-1.8,3.92-4.7,3.92C71.66,69.57,69.98,68.78,68.78,67.53z"/>
	<path class="st2" d="M80.83,59.11h1.43l0.15,1.18h0.06c0.92-0.77,2.07-1.43,3.25-1.43c2.64,0,4.05,2.05,4.05,5.2
		c0,3.48-2.09,5.51-4.42,5.51c-0.94,0-1.89-0.43-2.83-1.18l0.05,1.78v3.45h-1.73V59.11z M87.98,64.08c0-2.25-0.77-3.76-2.69-3.76
		c-0.86,0-1.74,0.48-2.73,1.39v5.35c0.92,0.78,1.81,1.06,2.48,1.06C86.73,68.12,87.98,66.6,87.98,64.08z"/>
	<path class="st2" d="M91.56,66.67c0-2.22,1.92-3.33,6.27-3.81c0-1.31-0.44-2.58-2.11-2.58c-1.18,0-2.24,0.56-3.04,1.09L92,60.2
		c0.94-0.62,2.37-1.33,4.01-1.33c2.49,0,3.54,1.66,3.54,4.2v6.26h-1.43l-0.15-1.22h-0.06c-0.97,0.81-2.11,1.47-3.38,1.47
		C92.84,69.57,91.56,68.51,91.56,66.67z M97.83,66.83V64c-3.42,0.41-4.58,1.25-4.58,2.55c0,1.16,0.79,1.63,1.79,1.63
		C96.02,68.18,96.84,67.7,97.83,66.83z"/>
	<path class="st2" d="M102.02,64.23c0-3.41,2.3-5.37,4.91-5.37c1.34,0,2.27,0.55,2.99,1.2l-0.88,1.14c-0.59-0.54-1.22-0.9-2.03-0.9
		c-1.85,0-3.2,1.59-3.2,3.93c0,2.34,1.28,3.9,3.16,3.9c0.93,0,1.76-0.45,2.4-1.02l0.75,1.16c-0.92,0.82-2.08,1.3-3.3,1.3
		C104.09,69.57,102.02,67.61,102.02,64.23z"/>
	<path class="st2" d="M111.15,64.23c0-3.32,2.24-5.37,4.59-5.37c2.6,0,4.07,1.87,4.07,4.79c0,0.36-0.03,0.73-0.08,0.98h-6.87
		c0.12,2.16,1.45,3.56,3.39,3.56c0.98,0,1.78-0.32,2.54-0.82l0.62,1.13c-0.89,0.59-1.98,1.06-3.37,1.06
		C113.32,69.57,111.15,67.58,111.15,64.23z M118.29,63.4c0-2.05-0.92-3.16-2.52-3.16c-1.44,0-2.72,1.15-2.93,3.16H118.29z"/>
</g>
</svg>
