<?xml version="1.0" encoding="utf-8"?>
<!-- Generator: Adobe Illustrator 27.6.1, SVG Export Plug-In . SVG Version: 6.00 Build 0)  -->
<svg version="1.1" id="Ğ¡Ğ»Ğ¾Ğ¹_1" xmlns="http://www.w3.org/2000/svg" xmlns:xlink="http://www.w3.org/1999/xlink" x="0px" y="0px"
	 viewBox="0 0 128 128" style="enable-background:new 0 0 128 128;" xml:space="preserve">
<style type="text/css">
	.st0{}
</style>
<g id="XMLID_00000026873364532975186130000016421064725622760849_">
	<g>
		<path d="M88,123.79v-36h36C124,107.68,107.9,123.79,88,123.79z"/>
		<path d="M40,87.79v36H4C4,103.89,20.1,87.79,40,87.79z"/>
		<rect x="40" y="87.79" width="48" height="36"/>
	</g>
	<g>
		<rect x="40" y="87.79" class="st0" width="48" height="36"/>
		<path class="st0" d="M4,123.79c0-19.9,16.1-36,36-36"/>
		<path class="st0" d="M88,123.79c19.9,0,36-16.11,36-36"/>
		<line class="st0" x1="4" y1="123.79" x2="40" y2="123.79"/>
		<line class="st0" x1="88" y1="87.79" x2="124" y2="87.79"/>
	</g>
</g>
<g id="XMLID_00000068648738549494610490000006677049576319272119_">
	<g>
		<path d="M124,5.59c0,19.9-16.1,36-36,36v-36H124z"/>
		<rect x="40" y="5.59" width="48" height="36"/>
		<path d="M40,5.59v36H4C4,21.69,20.1,5.59,40,5.59z"/>
	</g>
	<g>
		<rect x="40" y="5.59" class="st0" width="48" height="36"/>
		<path class="st0" d="M4,41.59c0-19.9,16.1-36,36-36"/>
		<path class="st0" d="M88,41.59c19.9,0,36-16.1,36-36"/>
		<line class="st0" x1="4" y1="41.59" x2="40" y2="41.59"/>
		<line class="st0" x1="88" y1="5.59" x2="124" y2="5.59"/>
	</g>
</g>
<g id="XMLID_00000169549520646534028490000009050748617084001696_">
	<g>
		<path d="M88,82.68h36c0-19.9-16.1-36-36-36V82.68z"/>
		<rect x="40" y="46.68" width="48" height="36"/>
		<path d="M40,82.68v-36H4C4,66.58,20.1,82.68,40,82.68z"/>
	</g>
	<g>
		<rect x="40" y="46.68" class="st0" width="48" height="36"/>
		<path class="st0" d="M4,46.68c0,19.9,16.1,36,36,36"/>
		<path class="st0" d="M88,46.68c19.9,0,36,16.1,36,36"/>
		<line class="st0" x1="4" y1="46.68" x2="40" y2="46.68"/>
		<line class="st0" x1="88" y1="82.68" x2="124" y2="82.68"/>
	</g>
</g>
</svg>
